<?xml version="1.0" encoding="UTF-8" standalone="no"?>
<!-- Created with Inkscape (http://www.inkscape.org/) -->

<svg
   width="210mm"
   height="297mm"
   viewBox="0 0 210 297"
   version="1.1"
   id="svg5"
   inkscape:version="1.1.2 (0a00cf5339, 2022-02-04)"
   sodipodi:docname="pBGT.svg"
   xmlns:inkscape="http://www.inkscape.org/namespaces/inkscape"
   xmlns:sodipodi="http://sodipodi.sourceforge.net/DTD/sodipodi-0.dtd"
   xmlns="http://www.w3.org/2000/svg"
   xmlns:svg="http://www.w3.org/2000/svg">
  <sodipodi:namedview
     id="namedview7"
     pagecolor="#ffffff"
     bordercolor="#666666"
     borderopacity="1.0"
     inkscape:pageshadow="2"
     inkscape:pageopacity="0.0"
     inkscape:pagecheckerboard="0"
     inkscape:document-units="mm"
     showgrid="false"
     showguides="true"
     inkscape:guide-bbox="true"
     inkscape:zoom="1.0582793"
     inkscape:cx="275.91959"
     inkscape:cy="235.28759"
     inkscape:window-width="1920"
     inkscape:window-height="1022"
     inkscape:window-x="0"
     inkscape:window-y="0"
     inkscape:window-maximized="1"
     inkscape:current-layer="g132916" />
  <defs
     id="defs2">
    <marker
       style="overflow:visible;"
       id="Arrow2Send"
       refX="0.0"
       refY="0.0"
       orient="auto"
       inkscape:stockid="Arrow2Send"
       inkscape:isstock="true">
      <path
         transform="scale(0.3) rotate(180) translate(-2.3,0)"
         d="M 8.7185878,4.0337352 L -2.2072895,0.016013256 L 8.7185884,-4.0017078 C 6.9730900,-1.6296469 6.9831476,1.6157441 8.7185878,4.0337352 z "
         style="stroke:context-stroke;fill-rule:evenodd;fill:context-stroke;stroke-width:0.62500000;stroke-linejoin:round;"
         id="path15247" />
    </marker>
    <marker
       style="overflow:visible;"
       id="Arrow2Mend"
       refX="0.0"
       refY="0.0"
       orient="auto"
       inkscape:stockid="Arrow2Mend"
       inkscape:isstock="true">
      <path
         transform="scale(0.6) rotate(180) translate(0,0)"
         d="M 8.7185878,4.0337352 L -2.2072895,0.016013256 L 8.7185884,-4.0017078 C 6.9730900,-1.6296469 6.9831476,1.6157441 8.7185878,4.0337352 z "
         style="stroke:context-stroke;fill-rule:evenodd;fill:context-stroke;stroke-width:0.62500000;stroke-linejoin:round;"
         id="path15241" />
    </marker>
    <inkscape:path-effect
       bendpath-nodetypes="cc"
       vertical="false"
       scale_y_rel="false"
       prop_scale="1"
       bendpath="m -15.20003,-12.177617 c -6.424305,-3.155792 -11.63029,-2.242022 -16.990662,0.792934"
       is_visible="true"
       id="path-effect10333-0-3"
       effect="bend_path"
       lpeversion="0"
       hide_knot="false" />
    <inkscape:path-effect
       bendpath-nodetypes="cc"
       vertical="false"
       scale_y_rel="false"
       prop_scale="1"
       bendpath="m -35.29359,15.660775 c 5.251193,4.328904 8.623427,6.106485 15.899763,4.814937"
       is_visible="true"
       id="path-effect10333-5-9-1"
       effect="bend_path"
       lpeversion="0"
       hide_knot="false" />
    <inkscape:path-effect
       bendpath-nodetypes="cc"
       vertical="true"
       scale_y_rel="false"
       prop_scale="1"
       bendpath="m -8.3965056,-6.2299197 c 3.0284922,4.863536 3.7149969,9.7270694 2.2467313,14.5906052"
       is_visible="true"
       id="path-effect10521-3-4"
       effect="bend_path"
       lpeversion="0"
       hide_knot="false" />
    <inkscape:path-effect
       bendpath-nodetypes="cc"
       vertical="true"
       scale_y_rel="false"
       prop_scale="1"
       bendpath="m -39.492198,8.4990521 c -1.942884,-5.0793027 -0.851259,-9.27228775 2.064603,-14.8601208"
       is_visible="true"
       id="path-effect7786-0-2-5-4-6-9"
       effect="bend_path"
       lpeversion="0"
       hide_knot="false" />
    <inkscape:path-effect
       bendpath-nodetypes="cc"
       vertical="true"
       scale_y_rel="false"
       prop_scale="1"
       bendpath="m -39.492199,8.4990521 c -1.942883,-5.0793027 -0.851258,-9.27228775 2.0646,-14.8601208"
       is_visible="true"
       id="path-effect7786-0-2-5-4-6-4-2"
       effect="bend_path"
       lpeversion="0"
       hide_knot="false" />
    <marker
       style="overflow:visible"
       id="Arrow2Send-2"
       refX="0"
       refY="0"
       orient="auto"
       inkscape:stockid="Arrow2Send"
       inkscape:isstock="true">
      <path
         transform="matrix(-0.3,0,0,-0.3,0.69,0)"
         d="M 8.7185878,4.0337352 -2.2072895,0.01601326 8.7185884,-4.0017078 c -1.7454984,2.3720609 -1.7354408,5.6174519 -6e-7,8.035443 z"
         style="fill:context-stroke;fill-rule:evenodd;stroke:context-stroke;stroke-width:0.625;stroke-linejoin:round"
         id="path15247-9" />
    </marker>
  </defs>
  <g
     inkscape:label="Layer 1"
     inkscape:groupmode="layer"
     id="layer1">
    <g
       id="g1050"
       transform="translate(-0.46706216,155.29919)" />
    <g
       id="g7249"
       transform="translate(5.9850668,-21.283435)">
      <g
         id="g7953"
         transform="translate(61.866865,67.789896)">
        <g
           id="g132916"
           inkscape:export-filename="/home/jero/Science/MEGA/Scientific Projects/Evodynamics/charlis paper/pBGT.png"
           inkscape:export-xdpi="300"
           inkscape:export-ydpi="300">
          <path
             inkscape:connector-curvature="0"
             style="color:#000000;clip-rule:nonzero;display:inline;overflow:visible;visibility:visible;opacity:0.99;isolation:auto;mix-blend-mode:normal;color-interpolation:sRGB;color-interpolation-filters:linearRGB;solid-color:#000000;solid-opacity:1;fill:none;fill-opacity:1;fill-rule:nonzero;stroke:#000000;stroke-width:0.410589;stroke-linecap:butt;stroke-linejoin:miter;stroke-miterlimit:10;stroke-dasharray:none;stroke-dashoffset:0;stroke-opacity:1;color-rendering:auto;image-rendering:auto;shape-rendering:auto;text-rendering:auto;enable-background:accumulate"
             d="M -5.4586566,3.3869862 A 17.439196,17.439196 0 0 1 -22.897854,20.826184 17.439196,17.439196 0 0 1 -40.337049,3.3869862 17.439196,17.439196 0 0 1 -22.897854,-14.052212 17.439196,17.439196 0 0 1 -5.4586566,3.3869862 Z"
             id="path10299-4"
             inkscape:export-filename="/home/jero/Science/MEGA/Scientific Projects/Evodynamics/charlis paper/pBGT.png"
             inkscape:export-xdpi="300"
             inkscape:export-ydpi="300" />
          <path
             style="color:#000000;clip-rule:nonzero;display:inline;overflow:visible;visibility:visible;isolation:auto;mix-blend-mode:normal;color-interpolation:sRGB;color-interpolation-filters:linearRGB;solid-color:#000000;solid-opacity:1;fill:#ffdb8b;fill-opacity:1;fill-rule:nonzero;stroke:#ff904a;stroke-width:0.410589;stroke-linecap:butt;stroke-linejoin:miter;stroke-miterlimit:10;stroke-dasharray:none;stroke-dashoffset:0;stroke-opacity:1;color-rendering:auto;image-rendering:auto;shape-rendering:auto;text-rendering:auto;enable-background:accumulate"
             d="m -18.947647,-11.54608 0.28569,-0.957603 c -1.756872,-0.527084 -3.570617,-0.779041 -5.358096,-0.632911 -2.635376,0.18962 -5.207376,1.209824 -7.605856,2.546208 l -0.94937,-1.690209 c 2.548239,-1.442127 5.387175,-2.542985 8.406661,-2.788168 2.063122,-0.149943 4.111375,0.126013 6.061623,0.704907 l 0.285691,-0.957606 c 0.529448,0.498724 1.018043,1.018789 1.469236,1.552825 0.451144,0.53416 0.864875,1.082286 1.244649,1.637005 -0.671432,0.03216 -1.332584,0.09734 -1.975331,0.195082 -0.642746,0.09774 -1.267088,0.228052 -1.864897,0.39047 z"
             id="path10328-4"
             inkscape:connector-curvature="0"
             inkscape:path-effect="#path-effect10333-0-3"
             inkscape:original-d="m -28.939612,-13.973362 v 0.997602 h 13.827739 v 1.937873 h -13.827739 v 0.997606 l -1.703307,-0.983172 -1.703306,-0.983572 1.703306,-0.98317 z"
             inkscape:export-filename="/home/jero/Science/MEGA/Scientific Projects/Evodynamics/charlis paper/pBGT.png"
             inkscape:export-xdpi="300"
             inkscape:export-ydpi="300" />
          <path
             style="color:#000000;clip-rule:nonzero;display:inline;overflow:visible;visibility:visible;isolation:auto;mix-blend-mode:normal;color-interpolation:sRGB;color-interpolation-filters:linearRGB;solid-color:#000000;solid-opacity:1;fill:#658db9;fill-opacity:1;fill-rule:nonzero;stroke:#3b638c;stroke-width:0.410589;stroke-linecap:butt;stroke-linejoin:miter;stroke-miterlimit:10;stroke-dasharray:none;stroke-dashoffset:0;stroke-opacity:1;color-rendering:auto;image-rendering:auto;shape-rendering:auto;text-rendering:auto;enable-background:accumulate"
             d="m -22.848167,22.836927 -0.03326,-0.999858 c -1.851825,0.05656 -3.725954,-0.140415 -5.535318,-0.744373 -2.922551,-1.021715 -5.347871,-2.893505 -7.570983,-4.749157 l 1.23301,-1.493614 c 2.215505,1.808521 4.438895,3.566995 6.965193,4.40921 1.522458,0.535783 3.165976,0.696528 4.843484,0.635678 l -0.03326,-0.999863 c 0.526365,0.307995 1.088075,0.595076 1.673124,0.86137 0.585062,0.266427 1.193471,0.512065 1.813214,0.737038 -0.507106,0.42125 -1.036224,0.834088 -1.593407,1.228141 -0.557183,0.394052 -1.14243,0.769319 -1.761791,1.115428 z"
             id="path10328-9-4"
             inkscape:connector-curvature="0"
             inkscape:path-effect="#path-effect10333-5-9-1"
             inkscape:original-d="M -22.94708,18.482995 V 17.485393 H -36.774818 V 15.54752 h 13.827738 v -0.997607 l 1.703308,0.983172 1.703305,0.983572 -1.703305,0.983171 z"
             inkscape:export-filename="/home/jero/Science/MEGA/Scientific Projects/Evodynamics/charlis paper/pBGT.png"
             inkscape:export-xdpi="300"
             inkscape:export-ydpi="300" />
          <flowRoot
             style="font-style:normal;font-weight:normal;line-height:0.01%;font-family:sans-serif;letter-spacing:0px;word-spacing:0px;fill:#000000;fill-opacity:1;stroke:none;stroke-width:1px;stroke-linecap:butt;stroke-linejoin:miter;stroke-opacity:1"
             id="flowRoot7611-7"
             xml:space="preserve"
             transform="matrix(0.25661868,0,0,0.25661868,-63.474043,-268.18342)"
             inkscape:export-filename="/home/jero/Science/MEGA/Scientific Projects/Evodynamics/charlis paper/pBGT.png"
             inkscape:export-xdpi="300"
             inkscape:export-ydpi="300"><flowRegion
               id="flowRegion7613-63"><rect
                 transform="scale(1,-1)"
                 y="-989.58051"
                 x="136.75424"
                 height="30.622883"
                 width="96.483047"
                 id="rect7615-1" /></flowRegion><flowPara
               style="font-style:normal;font-variant:normal;font-weight:normal;font-stretch:normal;font-size:12px;line-height:1.25;font-family:arial;-inkscape-font-specification:arial"
               id="flowPara7617-7"><flowSpan
                 id="flowSpan7643-5"
                 style="font-style:italic">bla</flowSpan><flowSpan
                 style="font-size:65%;baseline-shift:sub"
                 id="flowSpan129388">TEM-1</flowSpan></flowPara></flowRoot>
          <flowRoot
             transform="matrix(0.20529495,0,0,0.20529495,-49.303558,-493.72265)"
             style="font-style:normal;font-weight:normal;line-height:0.01%;font-family:sans-serif;letter-spacing:0px;word-spacing:0px;fill:#000000;fill-opacity:1;stroke:none;stroke-width:1px;stroke-linecap:butt;stroke-linejoin:miter;stroke-opacity:1"
             id="flowRoot7611-3-9"
             xml:space="preserve"
             inkscape:export-filename="/home/jero/Science/MEGA/Scientific Projects/Evodynamics/charlis paper/pBGT.png"
             inkscape:export-xdpi="300"
             inkscape:export-ydpi="300"><flowRegion
               id="flowRegion7613-6-6"><rect
                 transform="scale(1,-1)"
                 y="-2439.6519"
                 x="-0.35114288"
                 height="38.278603"
                 width="120.60381"
                 id="rect7615-7-2" /></flowRegion><flowPara
               style="font-style:italic;font-variant:normal;font-weight:normal;font-stretch:normal;font-size:15px;line-height:1.25;font-family:arial;-inkscape-font-specification:arial"
               id="flowPara7617-5-1">gfp</flowPara></flowRoot>
          <path
             style="color:#000000;clip-rule:nonzero;display:inline;overflow:visible;visibility:visible;isolation:auto;mix-blend-mode:normal;color-interpolation:sRGB;color-interpolation-filters:linearRGB;solid-color:#000000;solid-opacity:1;fill:#658db9;fill-opacity:1;fill-rule:nonzero;stroke:#3b638c;stroke-width:0.410589;stroke-linecap:butt;stroke-linejoin:miter;stroke-miterlimit:10;stroke-dasharray:none;stroke-dashoffset:0;stroke-opacity:1;color-rendering:auto;image-rendering:auto;shape-rendering:auto;text-rendering:auto;enable-background:accumulate"
             d="m -7.4978525,5.1479611 0.9850122,0.095658 c 0.3697875,-3.7900712 -0.6916644,-7.7491091 -2.75069,-11.0327126 l 1.6401615,-1.0316674 c 2.283839,3.6207529 3.4363768,7.9856195 3.0239478,12.2501992 l 0.9850139,0.095658 C -3.9915015,6.0490744 -4.3907214,6.5424126 -4.8097892,7.001947 -5.228989,7.4614555 -5.6680346,7.8871475 -6.1246468,8.2758579 -6.2964435,7.7014128 -6.499375,7.1535375 -6.7295426,6.6322241 -6.9597095,6.1109105 -7.2171124,5.6161588 -7.4978525,5.1479611 Z"
             id="path10328-8-7"
             inkscape:connector-curvature="0"
             inkscape:path-effect="#path-effect10521-3-4"
             inkscape:original-d="M -0.65080322,10.271865 H -1.6484052 V -3.5558737 H -3.5862805 V 10.271865 h -0.9976037 l 0.9831692,1.703307 0.9835751,1.703306 0.9831692,-1.703306 z"
             inkscape:export-filename="/home/jero/Science/MEGA/Scientific Projects/Evodynamics/charlis paper/pBGT.png"
             inkscape:export-xdpi="300"
             inkscape:export-ydpi="300" />
          <flowRoot
             transform="matrix(0.20529165,-0.00116476,0.00116476,0.20529165,-3.5238922,-495.19035)"
             style="font-style:normal;font-weight:normal;line-height:0.01%;font-family:sans-serif;letter-spacing:0px;word-spacing:0px;fill:#000000;fill-opacity:1;stroke:none;stroke-width:1px;stroke-linecap:butt;stroke-linejoin:miter;stroke-opacity:1"
             id="flowRoot7611-3-9-1-8"
             xml:space="preserve"
             inkscape:export-filename="/home/jero/Science/MEGA/Scientific Projects/Evodynamics/charlis paper/pBGT.png"
             inkscape:export-xdpi="300"
             inkscape:export-ydpi="300"><flowRegion
               id="flowRegion7613-6-7-2-5"><rect
                 transform="scale(1,-1)"
                 y="-2439.6519"
                 x="-0.35114288"
                 height="38.278603"
                 width="120.60381"
                 id="rect7615-7-3-9-7" /></flowRegion><flowPara
               style="font-style:italic;font-variant:normal;font-weight:normal;font-stretch:normal;font-size:15px;line-height:1.25;font-family:arial;-inkscape-font-specification:arial"
               id="flowPara7617-5-6-3-4">cat</flowPara></flowRoot>
          <flowRoot
             transform="matrix(0.2052948,-2.5668846e-4,2.5668846e-4,0.2052948,-36.221183,-470.21201)"
             style="font-style:normal;font-weight:normal;line-height:0.01%;font-family:sans-serif;letter-spacing:0px;word-spacing:0px;fill:#000000;fill-opacity:1;stroke:none;stroke-width:1px;stroke-linecap:butt;stroke-linejoin:miter;stroke-opacity:1"
             id="flowRoot7611-3-9-1-1-1"
             xml:space="preserve"
             inkscape:export-filename="/home/jero/Science/MEGA/Scientific Projects/Evodynamics/charlis paper/pBGT.png"
             inkscape:export-xdpi="300"
             inkscape:export-ydpi="300"><flowRegion
               id="flowRegion7613-6-7-2-9-8"><rect
                 transform="scale(1,-1)"
                 y="-2439.6519"
                 x="-0.35114288"
                 height="38.278603"
                 width="120.60381"
                 id="rect7615-7-3-9-4-5" /></flowRegion><flowPara
               style="font-style:italic;font-variant:normal;font-weight:normal;font-stretch:normal;font-size:15px;line-height:1.25;font-family:arial;-inkscape-font-specification:arial"
               id="flowPara7617-5-6-3-7-9">araC</flowPara></flowRoot>
          <flowRoot
             transform="matrix(0.2052948,-2.5668846e-4,2.5668846e-4,0.2052948,-49.520669,-479.64225)"
             style="font-style:normal;font-weight:normal;line-height:0.01%;font-family:sans-serif;letter-spacing:0px;word-spacing:0px;fill:#000000;fill-opacity:1;stroke:none;stroke-width:1px;stroke-linecap:butt;stroke-linejoin:miter;stroke-opacity:1"
             id="flowRoot7611-3-9-1-1-1-3"
             xml:space="preserve"
             inkscape:export-filename="/home/jero/Science/MEGA/Scientific Projects/Evodynamics/charlis paper/pBGT.png"
             inkscape:export-xdpi="300"
             inkscape:export-ydpi="300"><flowRegion
               id="flowRegion7613-6-7-2-9-8-6"><rect
                 transform="scale(1,-1)"
                 y="-2439.6519"
                 x="-0.35114288"
                 height="38.278603"
                 width="120.60381"
                 id="rect7615-7-3-9-4-5-7" /></flowRegion><flowPara
               style="font-style:italic;font-variant:normal;font-weight:normal;font-stretch:normal;font-size:15px;line-height:1.25;font-family:arial;-inkscape-font-specification:arial"
               id="flowPara7617-5-6-3-7-9-5">P<flowSpan
   style="font-size:65%;baseline-shift:sub"
   id="flowSpan17664">BAD</flowSpan></flowPara></flowRoot>
          <flowRoot
             transform="matrix(0.25661868,0,0,0.25661868,-34.578147,-177.30044)"
             style="font-style:normal;font-weight:normal;line-height:0.01%;font-family:sans-serif;letter-spacing:0px;word-spacing:0px;fill:#000000;fill-opacity:1;stroke:none;stroke-width:1px;stroke-linecap:butt;stroke-linejoin:miter;stroke-opacity:1"
             id="flowRoot7696-6-6-7"
             xml:space="preserve"
             inkscape:export-filename="/home/jero/Science/MEGA/Scientific Projects/Evodynamics/charlis paper/pBGT.png"
             inkscape:export-xdpi="300"
             inkscape:export-ydpi="300"><flowRegion
               id="flowRegion7698-0-3-5"><rect
                 transform="scale(1,-1)"
                 y="-795.58545"
                 x="-0.92302704"
                 height="108.22884"
                 width="92.288116"
                 id="rect7700-6-2-3" /></flowRegion><flowPara
               style="font-style:normal;font-variant:normal;font-weight:normal;font-stretch:normal;font-size:14px;line-height:1.25;font-family:arial;-inkscape-font-specification:arial;text-align:center;text-anchor:middle"
               id="flowPara7702-2-0-8">pBGT1</flowPara><flowPara
               style="font-style:normal;font-variant:normal;font-weight:normal;font-stretch:normal;font-size:12px;line-height:1.25;font-family:arial;-inkscape-font-specification:arial;text-align:center;text-anchor:middle"
               id="flowPara8385-8">5,369bp</flowPara></flowRoot>
          <path
             sodipodi:nodetypes="cccccccccc"
             inkscape:original-d="m -40.884234,2.0076219 h -0.997604 V -11.981595 h -1.937873 V 1.8461472 h -0.997604 l 0.983169,1.7033074 0.983572,1.7033056 0.983172,-1.7033056 z"
             inkscape:path-effect="#path-effect7786-0-2-5-4-6-9"
             inkscape:connector-curvature="0"
             id="path10328-8-2-8-2-8-3"
             d="m -36.943044,-2.848262 -0.915715,-0.4018657 c -0.673031,1.5277715 -1.211702,3.0783841 -1.467258,4.6681688 -0.38147,2.2641632 -0.07316,4.645255 0.769111,6.8135492 l -1.805629,0.7032119 c -0.963282,-2.4678085 -1.306987,-5.1888712 -0.875301,-7.8334621 0.297388,-1.74948302 0.856319,-3.4091674 1.540297,-4.9940385 l -0.917389,-0.3974888 c 0.51708,-0.3711744 1.039815,-0.7173464 1.565096,-1.0465105 0.525402,-0.3291048 1.053347,-0.6411973 1.580729,-0.9442751 0.05438,0.6057581 0.117641,1.2098815 0.194553,1.8052407 0.09766,0.5525192 0.206965,1.0969677 0.331506,1.6274701 z"
             style="color:#000000;clip-rule:nonzero;display:inline;overflow:visible;visibility:visible;isolation:auto;mix-blend-mode:normal;color-interpolation:sRGB;color-interpolation-filters:linearRGB;solid-color:#000000;solid-opacity:1;fill:#ffffff;fill-opacity:1;fill-rule:nonzero;stroke:#009191;stroke-width:0.410589;stroke-linecap:butt;stroke-linejoin:miter;stroke-miterlimit:10;stroke-dasharray:none;stroke-dashoffset:0;stroke-opacity:1;color-rendering:auto;image-rendering:auto;shape-rendering:auto;text-rendering:auto;enable-background:accumulate"
             inkscape:export-filename="/home/jero/Science/MEGA/Scientific Projects/Evodynamics/charlis paper/pBGT.png"
             inkscape:export-xdpi="300"
             inkscape:export-ydpi="300" />
          <flowRoot
             transform="matrix(0.20529495,0,0,0.20529495,-10.155894,-477.45279)"
             style="font-style:normal;font-weight:normal;line-height:0.01%;font-family:sans-serif;letter-spacing:0px;word-spacing:0px;fill:#000000;fill-opacity:1;stroke:none;stroke-width:1px;stroke-linecap:butt;stroke-linejoin:miter;stroke-opacity:1"
             id="flowRoot7611-3-1-1"
             xml:space="preserve"
             inkscape:export-filename="/home/jero/Science/MEGA/Scientific Projects/Evodynamics/charlis paper/pBGT.png"
             inkscape:export-xdpi="300"
             inkscape:export-ydpi="300"><flowRegion
               id="flowRegion7613-6-03-8"><rect
                 transform="scale(1,-1)"
                 y="-2439.6519"
                 x="-0.35114288"
                 height="38.278603"
                 width="120.60381"
                 id="rect7615-7-0-9" /></flowRegion><flowPara
               style="font-style:italic;font-variant:normal;font-weight:normal;font-stretch:normal;font-size:15px;line-height:1.25;font-family:arial;-inkscape-font-specification:arial"
               id="flowPara7617-5-4-6">p15A ori</flowPara></flowRoot>
          <path
             sodipodi:nodetypes="cccccccccc"
             inkscape:original-d="m -40.884234,2.0076219 h -0.997605 V -11.981595 h -1.937872 V 1.8461472 h -0.997606 l 0.983171,1.7033074 0.983572,1.7033056 0.983172,-1.7033056 z"
             inkscape:path-effect="#path-effect7786-0-2-5-4-6-4-2"
             inkscape:connector-curvature="0"
             id="path10328-8-2-8-2-8-5-4"
             d="m -36.943045,-2.848262 -0.915716,-0.4018657 c -0.673031,1.5277715 -1.211701,3.07838412 -1.467256,4.6681686 -0.38147,2.2641634 -0.07316,4.6452552 0.769111,6.8135496 l -1.805629,0.7032112 c -0.963281,-2.4678084 -1.306986,-5.1888708 -0.8753,-7.8334613 0.297387,-1.74948251 0.856317,-3.4091666 1.540295,-4.9940376 l -0.917391,-0.3974891 c 0.51708,-0.3711743 1.039815,-0.7173463 1.565097,-1.0465103 0.525401,-0.3291049 1.053347,-0.6411977 1.580727,-0.9442757 0.05438,0.605758 0.117643,1.2098813 0.194555,1.8052404 0.09766,0.5525191 0.206965,1.0969676 0.331507,1.6274699 z"
             style="color:#000000;clip-rule:nonzero;display:inline;overflow:visible;visibility:visible;isolation:auto;mix-blend-mode:normal;color-interpolation:sRGB;color-interpolation-filters:linearRGB;solid-color:#000000;solid-opacity:1;fill:#86cc85;fill-opacity:1;fill-rule:nonzero;stroke:#4aad48;stroke-width:0.410589;stroke-linecap:butt;stroke-linejoin:miter;stroke-miterlimit:10;stroke-dasharray:none;stroke-dashoffset:0;stroke-opacity:1;color-rendering:auto;image-rendering:auto;shape-rendering:auto;text-rendering:auto;enable-background:accumulate"
             inkscape:export-filename="/home/jero/Science/MEGA/Scientific Projects/Evodynamics/charlis paper/pBGT.png"
             inkscape:export-xdpi="300"
             inkscape:export-ydpi="300" />
          <path
             style="fill:none;stroke:#000000;stroke-width:0.447571px;stroke-linecap:butt;stroke-linejoin:miter;stroke-opacity:1;marker-end:url(#Arrow2Send)"
             d="m -38.002907,12.509945 -2.952705,1.785562 -1.625455,-2.662577"
             id="path15212"
             sodipodi:nodetypes="ccc"
             inkscape:export-filename="/home/jero/Science/MEGA/Scientific Projects/Evodynamics/charlis paper/pBGT.png"
             inkscape:export-xdpi="300"
             inkscape:export-ydpi="300" />
          <path
             style="fill:none;stroke:#47ac4b;stroke-width:0.279116;stroke-linecap:butt;stroke-linejoin:miter;stroke-miterlimit:4;stroke-dasharray:none;stroke-opacity:0.996078"
             d="m -44.54298,1.420607 2.755691,0.5045971"
             id="path22442"
             sodipodi:nodetypes="cc"
             inkscape:export-filename="/home/jero/Science/MEGA/Scientific Projects/Evodynamics/charlis paper/pBGT.png"
             inkscape:export-xdpi="300"
             inkscape:export-ydpi="300" />
          <path
             style="fill:none;stroke:#3b638c;stroke-width:0.279116;stroke-linecap:butt;stroke-linejoin:miter;stroke-miterlimit:4;stroke-dasharray:none;stroke-opacity:1"
             d="m -31.458218,20.257173 -1.002808,2.626616"
             id="path22442-6"
             sodipodi:nodetypes="cc"
             inkscape:export-filename="/home/jero/Science/MEGA/Scientific Projects/Evodynamics/charlis paper/pBGT.png"
             inkscape:export-xdpi="300"
             inkscape:export-ydpi="300" />
          <path
             style="fill:none;stroke:#3b638c;stroke-width:0.279116;stroke-linecap:butt;stroke-linejoin:miter;stroke-miterlimit:4;stroke-dasharray:none;stroke-opacity:1"
             d="m -4.1024146,0.47862655 2.7556912,-0.5045972"
             id="path22442-5"
             sodipodi:nodetypes="cc"
             inkscape:export-filename="/home/jero/Science/MEGA/Scientific Projects/Evodynamics/charlis paper/pBGT.png"
             inkscape:export-xdpi="300"
             inkscape:export-ydpi="300" />
          <path
             style="fill:none;stroke:#ff934d;stroke-width:0.279116;stroke-linecap:butt;stroke-linejoin:miter;stroke-miterlimit:4;stroke-dasharray:none;stroke-opacity:1"
             d="m -23.726666,-17.829571 -0.0036,2.243733"
             id="path22442-3"
             sodipodi:nodetypes="cc"
             inkscape:export-filename="/home/jero/Science/MEGA/Scientific Projects/Evodynamics/charlis paper/pBGT.png"
             inkscape:export-xdpi="300"
             inkscape:export-ydpi="300" />
          <g
             id="g20539"
             transform="matrix(0.14371744,0,0,0.14371744,4.3717654,-22.637336)"
             inkscape:export-filename="/home/jero/Science/MEGA/Scientific Projects/Evodynamics/charlis paper/pBGT_criclize.png"
             inkscape:export-xdpi="300"
             inkscape:export-ydpi="300">
            <path
               style="fill:none;stroke:#000000;stroke-width:0.75;stroke-linecap:round;stroke-linejoin:round;stroke-miterlimit:10;stroke-opacity:1"
               d="m 329.02344,179 -0.0156,-1.92578 -0.043,-1.92188 -0.0742,-1.92187 -0.10156,-1.92188 -0.1289,-1.92187 -0.16016,-1.91797 -0.1875,-1.91406 -0.21484,-1.91407 -0.2461,-1.90625 -0.27344,-1.90625 -0.30078,-1.89843 -0.33203,-1.89844 -0.35937,-1.89063 -0.38672,-1.88281 -0.41797,-1.8789 -0.44531,-1.8711 -0.47266,-1.86719 -0.5,-1.85937 -0.52734,-1.84766 -0.55469,-1.84375 -0.58594,-1.83203 -0.60937,-1.82812 -0.64063,-1.8125 -0.66406,-1.8086 -0.69141,-1.79297 -0.72265,-1.78515 -0.7461,-1.77344 -0.77343,-1.76172 -0.79688,-1.75 -0.82812,-1.73828 -0.85157,-1.72656 -0.875,-1.71484 -0.90234,-1.69922 -0.92969,-1.6836 -0.95312,-1.67187 -0.98047,-1.65625 -1.00391,-1.64063 -1.02734,-1.6289 -1.05078,-1.60938 -1.07813,-1.59765 -1.10156,-1.57813 -1.125,-1.5625 -1.14453,-1.54297 -1.17188,-1.52734 -1.1914,-1.507815 -1.21875,-1.492187 -1.23828,-1.472657 -1.25782,-1.457031 -1.28125,-1.433594 -1.30468,-1.417968 -1.32422,-1.394532 -1.34766,-1.375 -1.3633,-1.355468 -1.38672,-1.335938 -1.40625,-1.3125 -1.42578,-1.292969 -1.44531,-1.273437 -1.46485,-1.25 -1.48047,-1.226563 -1.5,-1.203125 -1.51953,-1.183594 -1.53515,-1.15625 -1.55469,-1.136718 -1.57031,-1.113282 -1.58594,-1.085937 -1.60156,-1.066406 -1.6211,-1.039063 -1.63281,-1.015625 -1.65234,-0.992187 -1.66407,-0.96875 -1.67578,-0.941406 -1.69531,-0.914063 -1.70312,-0.890625 -1.71875,-0.863281 -1.73438,-0.839844 -1.74219,-0.8125 -1.75781,-0.785156 L 250.65625,61 l -1.77734,-0.730469 -1.78907,-0.707031 -1.80078,-0.679688 -1.8125,-0.652343 -1.82031,-0.625 -1.82813,-0.597657 -1.83984,-0.570312 -1.84375,-0.542969 -1.85547,-0.511719 -1.86328,-0.488281 -1.86719,-0.457031 -1.875,-0.429688 -1.88281,-0.402343 -1.88672,-0.375 -1.89453,-0.34375 -1.89844,-0.316407 -1.90234,-0.289062 -1.90625,-0.261719 -1.91016,-0.230469 -1.91406,-0.199218 -1.91797,-0.175782 -1.91797,-0.144531 -1.92187,-0.113281 -1.92188,-0.08984 -1.92187,-0.05469 -1.92578,-0.03125 h -1.92188 l -1.92578,0.03125 -1.92187,0.05469 -1.92188,0.08984 -1.92187,0.113281 -1.91797,0.144531 -1.91797,0.175782 -1.91406,0.199218 -1.91016,0.230469 -1.90625,0.261719 -1.90234,0.289062 -1.89844,0.316407 -1.89453,0.34375 -1.88672,0.375 -1.88281,0.402343 -1.875,0.429688 -1.86719,0.457031 -1.86328,0.488281 -1.85547,0.511719 -1.84375,0.542969 -1.83985,0.570312 -1.82812,0.597657 -1.82031,0.625 -1.8125,0.652343 -1.80078,0.679688 -1.78907,0.707031 L 151.34375,61 l -1.76953,0.761719 -1.75781,0.785156 -1.74219,0.8125 -1.73438,0.839844 -1.71875,0.863281 -1.70312,0.890625 -1.69531,0.914063 -1.67579,0.941406 -1.66406,0.96875 -1.65234,0.992187 -1.63281,1.015625 -1.6211,1.039063 -1.60156,1.066406 -1.58594,1.085937 -1.57031,1.113282 -1.55469,1.136718 -1.53515,1.15625 -1.51953,1.183594 -1.5,1.203125 -1.48047,1.226563 -1.46485,1.25 -1.44531,1.273437 -1.42578,1.292969 -1.40625,1.3125 -1.38672,1.335938 -1.36328,1.355468 -1.34766,1.375 -1.32422,1.394532 -1.30468,1.417968 -1.28125,1.433594 -1.25782,1.457031 -1.23828,1.472657 -1.21875,1.492187 -1.191404,1.507815 -1.171875,1.52734 -1.144531,1.54297 -1.125,1.5625 -1.101562,1.57813 -1.078126,1.59765 -1.050781,1.60938 -1.027343,1.6289 -1.003907,1.64063 -0.980469,1.65625 -0.953124,1.67187 -0.929688,1.6836 -0.902344,1.69922 -0.875,1.71484 -0.851562,1.72656 -0.828125,1.73828 -0.796875,1.75 -0.773438,1.76172 -0.746094,1.77344 -0.722656,1.78515 -0.691406,1.79297 -0.664062,1.8086 -0.640626,1.8125 -0.609374,1.82812 -0.585938,1.83203 -0.554688,1.84375 -0.527343,1.84766 -0.5,1.85937 -0.472657,1.86719 -0.445312,1.8711 -0.417969,1.8789 -0.386719,1.88281 -0.359374,1.89063 -0.332032,1.89844 -0.300781,1.89843 -0.273437,1.90625 -0.246094,1.90625 -0.214844,1.91407 -0.1875,1.91406 -0.160156,1.91797 -0.128906,1.92187 -0.101563,1.92188 -0.07422,1.92187 -0.04297,1.92188 -0.01563,1.92578 0.01563,1.92578 0.04297,1.92188 0.07422,1.92187 0.101563,1.92188 0.128906,1.92187 0.160156,1.91797 0.1875,1.91406 0.214844,1.91406 0.246094,1.90625 0.273437,1.90625 0.300781,1.89844 0.332032,1.89844 0.359374,1.89062 0.386719,1.88282 0.417969,1.8789 0.445312,1.8711 0.472657,1.86718 0.5,1.85938 0.527343,1.84766 0.554688,1.84375 0.585938,1.83203 0.609374,1.82812 0.640626,1.8125 0.664062,1.8086 0.691406,1.79296 0.722656,1.78516 0.746094,1.77344 0.773438,1.76172 0.796875,1.75 0.828125,1.73828 0.851562,1.72656 0.875,1.71484 0.902344,1.69922 0.929688,1.6836 0.953124,1.67187 0.980469,1.65625 1.003907,1.64063 1.027343,1.6289 1.050781,1.60938 1.078126,1.59765 1.101562,1.57813 1.125,1.5625 1.144531,1.54297 1.171875,1.52734 1.191404,1.50781 1.21875,1.49219 1.23828,1.47266 1.25782,1.45703 1.28125,1.43359 1.30468,1.41797 1.32422,1.39453 1.34766,1.375 1.36328,1.35547 1.38672,1.33594 1.40625,1.3125 1.42578,1.29297 1.44531,1.27344 1.46485,1.25 1.48047,1.22656 1.5,1.20312 1.51953,1.1836 1.53515,1.15625 1.55469,1.13672 1.57031,1.11328 1.58594,1.08593 1.60156,1.06641 1.6211,1.03906 1.63281,1.01563 1.65234,0.99219 1.66406,0.96875 1.67579,0.9414 1.69531,0.91406 1.70312,0.89063 1.71875,0.86328 1.73438,0.83984 1.74219,0.8125 1.75781,0.78516 1.76953,0.76172 1.77734,0.73047 1.78907,0.70703 1.80078,0.67969 1.8125,0.65234 1.82031,0.625 1.82812,0.59766 1.83985,0.57031 1.84375,0.54297 1.85547,0.51172 1.86328,0.48828 1.86719,0.45703 1.875,0.42969 1.88281,0.40234 1.88672,0.375 1.89453,0.34375 1.89844,0.31641 1.90234,0.28906 1.90625,0.26172 1.91016,0.23047 1.91406,0.19922 1.91797,0.17578 1.91797,0.14453 1.92187,0.11328 1.92188,0.0898 1.92187,0.0547 1.92578,0.0312 h 1.92188 l 1.92578,-0.0312 1.92187,-0.0547 1.92188,-0.0898 1.92187,-0.11328 1.91797,-0.14453 1.91797,-0.17578 1.91406,-0.19922 1.91016,-0.23047 1.90625,-0.26172 1.90234,-0.28906 1.89844,-0.31641 1.89453,-0.34375 1.88672,-0.375 1.88281,-0.40234 1.875,-0.42969 1.86719,-0.45703 1.86328,-0.48828 1.85547,-0.51172 1.84375,-0.54297 1.83984,-0.57031 1.82813,-0.59766 1.82031,-0.625 1.8125,-0.65234 1.80078,-0.67969 1.78907,-0.70703 1.77734,-0.73047 1.76953,-0.76172 1.75781,-0.78516 1.74219,-0.8125 1.73438,-0.83984 1.71875,-0.86328 1.70312,-0.89063 1.69531,-0.91406 1.67578,-0.9414 1.66407,-0.96875 1.65234,-0.99219 1.63281,-1.01563 1.6211,-1.03906 1.60156,-1.06641 1.58594,-1.08593 1.57031,-1.11328 1.55469,-1.13672 1.53515,-1.15625 1.51953,-1.1836 1.5,-1.20312 1.48047,-1.22656 1.46485,-1.25 1.44531,-1.27344 1.42578,-1.29297 1.40625,-1.3125 1.38672,-1.33594 1.36328,-1.35547 1.34766,-1.375 1.32422,-1.39453 1.30468,-1.41797 1.28125,-1.43359 1.25782,-1.45703 1.23828,-1.47266 1.21875,-1.49219 1.1914,-1.50781 1.17188,-1.52734 1.14453,-1.54297 1.125,-1.5625 1.10156,-1.57813 1.07813,-1.59765 1.05078,-1.60938 1.02734,-1.6289 1.00391,-1.64063 0.98047,-1.65625 0.95312,-1.67187 0.92969,-1.6836 0.90234,-1.69922 0.875,-1.71484 0.85157,-1.72656 0.82812,-1.73828 0.79688,-1.75 0.77343,-1.76172 0.7461,-1.77344 0.72265,-1.78516 0.69141,-1.79296 0.66406,-1.8086 0.64063,-1.8125 0.60937,-1.82812 0.58594,-1.83203 0.55469,-1.84375 0.52734,-1.84766 0.5,-1.85938 0.47266,-1.86718 0.44531,-1.8711 0.41797,-1.8789 0.38672,-1.88282 0.35937,-1.89062 0.33203,-1.89844 0.30078,-1.89844 0.27344,-1.90625 0.2461,-1.90625 0.21484,-1.91406 0.1875,-1.91406 0.16016,-1.91797 0.1289,-1.92187 0.10156,-1.92188 0.0742,-1.92187 0.043,-1.92188 0.0156,-1.92578"
               id="path152" />
            <path
               style="fill:none;stroke:#000000;stroke-width:1.95;stroke-linecap:round;stroke-linejoin:round;stroke-miterlimit:10;stroke-dasharray:none;stroke-opacity:1"
               d="m 329.02344,179 -0.0156,-1.92578 -0.043,-1.92188 -0.0742,-1.92187 -0.10156,-1.92188 -0.1289,-1.92187 -0.16016,-1.91797 -0.1875,-1.91406 -0.21484,-1.91407 -0.2461,-1.90625 -0.27344,-1.90625 -0.30078,-1.89843 -0.33203,-1.89844 -0.35937,-1.89063 -0.38672,-1.88281 -0.41797,-1.8789 -0.44531,-1.8711 -0.47266,-1.86719 -0.5,-1.85937 -0.52734,-1.84766 -0.55469,-1.84375 -0.58594,-1.83203 -0.60937,-1.82812 -0.64063,-1.8125 -0.66406,-1.8086 -0.69141,-1.79297 -0.72265,-1.78515 -0.7461,-1.77344 -0.77343,-1.76172 -0.79688,-1.75 -0.82812,-1.73828 -0.85157,-1.72656 -0.875,-1.71484 -0.90234,-1.69922 -0.92969,-1.6836 -0.95312,-1.67187 -0.98047,-1.65625 -1.00391,-1.64063 -1.02734,-1.6289 -1.05078,-1.60938 -1.07813,-1.59765 -1.10156,-1.57813 -1.125,-1.5625 -1.14453,-1.54297 -1.17188,-1.52734 -1.1914,-1.507815 -1.21875,-1.492187 -1.23828,-1.472657 -1.25782,-1.457031 -1.28125,-1.433594 -1.30468,-1.417968 -1.32422,-1.394532 -1.34766,-1.375 -1.3633,-1.355468 -1.38672,-1.335938 -1.40625,-1.3125 -1.42578,-1.292969 -1.44531,-1.273437 -1.46485,-1.25 -1.48047,-1.226563 -1.5,-1.203125 -1.51953,-1.183594 -1.53515,-1.15625 -1.55469,-1.136718 -1.57031,-1.113282 -1.58594,-1.085937 -1.60156,-1.066406 -1.6211,-1.039063 -1.63281,-1.015625 -1.65234,-0.992187 -1.66407,-0.96875 -1.67578,-0.941406 -1.69531,-0.914063 -1.70312,-0.890625 -1.71875,-0.863281 -1.73438,-0.839844 -1.74219,-0.8125 -1.75781,-0.785156 L 250.65625,61 l -1.77734,-0.730469 -1.78907,-0.707031 -1.80078,-0.679688 -1.8125,-0.652343 -1.82031,-0.625 -1.82813,-0.597657 -1.83984,-0.570312 -1.84375,-0.542969 -1.85547,-0.511719 -1.86328,-0.488281 -1.86719,-0.457031 -1.875,-0.429688 -1.88281,-0.402343 -1.88672,-0.375 -1.89453,-0.34375 -1.89844,-0.316407 -1.90234,-0.289062 -1.90625,-0.261719 -1.91016,-0.230469 -1.91406,-0.199218 -1.91797,-0.175782 -1.91797,-0.144531 -1.92187,-0.113281 -1.92188,-0.08984 -1.92187,-0.05469 -1.92578,-0.03125 h -1.92188 l -1.92578,0.03125 -1.92187,0.05469 -1.92188,0.08984 -1.92187,0.113281 -1.91797,0.144531 -1.91797,0.175782 -1.91406,0.199218 -1.91016,0.230469 -1.90625,0.261719 -1.90234,0.289062 -1.89844,0.316407 -1.89453,0.34375 -1.88672,0.375 -1.88281,0.402343 -1.875,0.429688 -1.86719,0.457031 -1.86328,0.488281 -1.85547,0.511719 -1.84375,0.542969 -1.83985,0.570312 -1.82812,0.597657 -1.82031,0.625 -1.8125,0.652343 -1.80078,0.679688 -1.78907,0.707031 L 151.34375,61 l -1.76953,0.761719 -1.75781,0.785156 -1.74219,0.8125 -1.73438,0.839844 -1.71875,0.863281 -1.70312,0.890625 -1.69531,0.914063 -1.67579,0.941406 -1.66406,0.96875 -1.65234,0.992187 -1.63281,1.015625 -1.6211,1.039063 -1.60156,1.066406 -1.58594,1.085937 -1.57031,1.113282 -1.55469,1.136718 -1.53515,1.15625 -1.51953,1.183594 -1.5,1.203125 -1.48047,1.226563 -1.46485,1.25 -1.44531,1.273437 -1.42578,1.292969 -1.40625,1.3125 -1.38672,1.335938 -1.36328,1.355468 -1.34766,1.375 -1.32422,1.394532 -1.30468,1.417968 -1.28125,1.433594 -1.25782,1.457031 -1.23828,1.472657 -1.21875,1.492187 -1.191404,1.507815 -1.171875,1.52734 -1.144531,1.54297 -1.125,1.5625 -1.101562,1.57813 -1.078126,1.59765 -1.050781,1.60938 -1.027343,1.6289 -1.003907,1.64063 -0.980469,1.65625 -0.953124,1.67187 -0.929688,1.6836 -0.902344,1.69922 -0.875,1.71484 -0.851562,1.72656 -0.828125,1.73828 -0.796875,1.75 -0.773438,1.76172 -0.746094,1.77344 -0.722656,1.78515 -0.691406,1.79297 -0.664062,1.8086 -0.640626,1.8125 -0.609374,1.82812 -0.585938,1.83203 -0.554688,1.84375 -0.527343,1.84766 -0.5,1.85937 -0.472657,1.86719 -0.445312,1.8711 -0.417969,1.8789 -0.386719,1.88281 -0.359374,1.89063 -0.332032,1.89844 -0.300781,1.89843 -0.273437,1.90625 -0.246094,1.90625 -0.214844,1.91407 -0.1875,1.91406 -0.160156,1.91797 -0.128906,1.92187 -0.101563,1.92188 -0.07422,1.92187 -0.04297,1.92188 -0.01563,1.92578 0.01563,1.92578 0.04297,1.92188 0.07422,1.92187 0.101563,1.92188 0.128906,1.92187 0.160156,1.91797 0.1875,1.91406 0.214844,1.91406 0.246094,1.90625 0.273437,1.90625 0.300781,1.89844 0.332032,1.89844 0.359374,1.89062 0.386719,1.88282 0.417969,1.8789 0.445312,1.8711 0.472657,1.86718 0.5,1.85938 0.527343,1.84766 0.554688,1.84375 0.585938,1.83203 0.609374,1.82812 0.640626,1.8125 0.664062,1.8086 0.691406,1.79296 0.722656,1.78516 0.746094,1.77344 0.773438,1.76172 0.796875,1.75 0.828125,1.73828 0.851562,1.72656 0.875,1.71484 0.902344,1.69922 0.929688,1.6836 0.953124,1.67187 0.980469,1.65625 1.003907,1.64063 1.027343,1.6289 1.050781,1.60938 1.078126,1.59765 1.101562,1.57813 1.125,1.5625 1.144531,1.54297 1.171875,1.52734 1.191404,1.50781 1.21875,1.49219 1.23828,1.47266 1.25782,1.45703 1.28125,1.43359 1.30468,1.41797 1.32422,1.39453 1.34766,1.375 1.36328,1.35547 1.38672,1.33594 1.40625,1.3125 1.42578,1.29297 1.44531,1.27344 1.46485,1.25 1.48047,1.22656 1.5,1.20312 1.51953,1.1836 1.53515,1.15625 1.55469,1.13672 1.57031,1.11328 1.58594,1.08593 1.60156,1.06641 1.6211,1.03906 1.63281,1.01563 1.65234,0.99219 1.66406,0.96875 1.67579,0.9414 1.69531,0.91406 1.70312,0.89063 1.71875,0.86328 1.73438,0.83984 1.74219,0.8125 1.75781,0.78516 1.76953,0.76172 1.77734,0.73047 1.78907,0.70703 1.80078,0.67969 1.8125,0.65234 1.82031,0.625 1.82812,0.59766 1.83985,0.57031 1.84375,0.54297 1.85547,0.51172 1.86328,0.48828 1.86719,0.45703 1.875,0.42969 1.88281,0.40234 1.88672,0.375 1.89453,0.34375 1.89844,0.31641 1.90234,0.28906 1.90625,0.26172 1.91016,0.23047 1.91406,0.19922 1.91797,0.17578 1.91797,0.14453 1.92187,0.11328 1.92188,0.0898 1.92187,0.0547 1.92578,0.0312 h 1.92188 l 1.92578,-0.0312 1.92187,-0.0547 1.92188,-0.0898 1.92187,-0.11328 1.91797,-0.14453 1.91797,-0.17578 1.91406,-0.19922 1.91016,-0.23047 1.90625,-0.26172 1.90234,-0.28906 1.89844,-0.31641 1.89453,-0.34375 1.88672,-0.375 1.88281,-0.40234 1.875,-0.42969 1.86719,-0.45703 1.86328,-0.48828 1.85547,-0.51172 1.84375,-0.54297 1.83984,-0.57031 1.82813,-0.59766 1.82031,-0.625 1.8125,-0.65234 1.80078,-0.67969 1.78907,-0.70703 1.77734,-0.73047 1.76953,-0.76172 1.75781,-0.78516 1.74219,-0.8125 1.73438,-0.83984 1.71875,-0.86328 1.70312,-0.89063 1.69531,-0.91406 1.67578,-0.9414 1.66407,-0.96875 1.65234,-0.99219 1.63281,-1.01563 1.6211,-1.03906 1.60156,-1.06641 1.58594,-1.08593 1.57031,-1.11328 1.55469,-1.13672 1.53515,-1.15625 1.51953,-1.1836 1.5,-1.20312 1.48047,-1.22656 1.46485,-1.25 1.44531,-1.27344 1.42578,-1.29297 1.40625,-1.3125 1.38672,-1.33594 1.36328,-1.35547 1.34766,-1.375 1.32422,-1.39453 1.30468,-1.41797 1.28125,-1.43359 1.25782,-1.45703 1.23828,-1.47266 1.21875,-1.49219 1.1914,-1.50781 1.17188,-1.52734 1.14453,-1.54297 1.125,-1.5625 1.10156,-1.57813 1.07813,-1.59765 1.05078,-1.60938 1.02734,-1.6289 1.00391,-1.64063 0.98047,-1.65625 0.95312,-1.67187 0.92969,-1.6836 0.90234,-1.69922 0.875,-1.71484 0.85157,-1.72656 0.82812,-1.73828 0.79688,-1.75 0.77343,-1.76172 0.7461,-1.77344 0.72265,-1.78516 0.69141,-1.79296 0.66406,-1.8086 0.64063,-1.8125 0.60937,-1.82812 0.58594,-1.83203 0.55469,-1.84375 0.52734,-1.84766 0.5,-1.85938 0.47266,-1.86718 0.44531,-1.8711 0.41797,-1.8789 0.38672,-1.88282 0.35937,-1.89062 0.33203,-1.89844 0.30078,-1.89844 0.27344,-1.90625 0.2461,-1.90625 0.21484,-1.91406 0.1875,-1.91406 0.16016,-1.91797 0.1289,-1.92187 0.10156,-1.92188 0.0742,-1.92187 0.043,-1.92188 0.0156,-1.92578"
               id="path154" />
            <path
               style="fill:#abd7e6;fill-opacity:1;fill-rule:nonzero;stroke:#225f73;stroke-width:2.05;stroke-linecap:round;stroke-linejoin:round;stroke-miterlimit:10;stroke-dasharray:none;stroke-opacity:1"
               d="m 287.85156,99.214844 -1.0039,-1.078125 -1.01172,-1.0625 -1.02735,-1.050781 -1.04297,-1.039063 -1.05468,-1.027344 -1.06641,-1.011719 -1.07812,-0.996093 -1.08985,-0.988281 -1.10547,-0.96875 -1.11328,-0.957032 -1.1289,-0.945312 -1.14063,-0.929688 -1.14844,-0.914062 -1.16406,-0.902344 -1.17187,-0.886719 -1.1836,-0.871093 -1.19531,-0.855469 -1.20703,-0.84375 -1.21485,-0.824219 -1.22656,-0.8125 -1.23437,-0.796875 -1.2461,-0.78125 -1.2539,-0.765625 -1.26563,-0.746094 -1.27344,-0.734375 -1.28515,-0.71875 -1.29297,-0.699219 -1.30078,-0.6875 -1.3086,-0.667968 L 252.69922,73 251.375,72.363281 l -1.33594,-0.621093 -1.33984,-0.601563 -1.34766,-0.585937 -1.35547,-0.570313 -1.36328,-0.550781 -1.36719,-0.535156 -1.3789,-0.519532 -1.38281,-0.5 -1.38672,-0.484375 -1.39453,-0.46875 -1.39844,-0.449219 -1.40625,-0.429687 -1.41016,-0.414063 -1.41797,-0.398437 -1.41797,-0.378906 -1.42578,-0.359375 -1.42968,-0.34375 -1.4336,-0.324219 -1.4375,-0.308594 -1.4414,-0.289062 -1.44532,-0.273438 -1.44922,-0.25 -1.44921,-0.238281 -1.45704,-0.214844 -1.45703,-0.199218 -1.45703,-0.183594 -1.46094,-0.160156 -1.46484,-0.144532 -1.46484,-0.128906 -1.46485,-0.105469 -1.46875,-0.08984 -1.46875,-0.07422 -1.46875,-0.05078 -1.46875,-0.03516 0.35157,-20.167969 1.72265,0.03906 1.71875,0.0625 1.71875,0.08594 1.71875,0.101563 1.71875,0.128906 1.71485,0.148438 1.71484,0.167969 1.71094,0.191406 1.70703,0.210937 1.70703,0.234375 1.70312,0.253906 1.69922,0.277344 1.69532,0.296875 1.6914,0.316407 1.6875,0.339843 1.6836,0.359375 1.67968,0.378906 1.67578,0.402344 1.66797,0.425782 1.66407,0.441406 1.65625,0.464844 1.65234,0.484374 1.64453,0.503907 1.64063,0.527343 1.63281,0.546876 1.625,0.566406 1.62109,0.585937 1.60938,0.609375 1.60547,0.625 1.59375,0.648438 1.58593,0.664062 1.58203,0.6875 1.57032,0.707032 1.55859,0.726562 1.55469,0.742188 1.54297,0.765624 1.53125,0.785157 1.52343,0.800781 1.51172,0.820312 1.50391,0.84375 1.49219,0.855469 1.48047,0.878907 1.47265,0.894531 1.45703,0.914062 1.44922,0.933594 1.4336,0.949219 1.42578,0.96875 1.41015,0.988281 1.39844,1 1.38672,1.023437 1.375,1.035157 1.35937,1.054687 1.34766,1.074219 1.33594,1.085937 1.32031,1.105469 1.30469,1.121094 1.29297,1.140625 1.27734,1.152344 1.26172,1.167968 1.25,1.1875 1.23437,1.199219 1.21875,1.214844 1.20313,1.230469 1.1875,1.246094 1.17578,1.261718 4.45703,-4.09375 -2.90625,21.847654 -20.86328,-0.0117 z m 0,0"
               id="path156" />
            <g
               style="fill:#000000;fill-opacity:1"
               id="g168">
              <g
                 id="use158"
                 transform="translate(241.94164,60.814896)">
                <path
                   style="stroke:none"
                   d="M 7.359375,-4.9375 9.890625,-3.625 10.34375,-4.5 4.25,-7.65625 l -0.453125,0.875 2.5625,1.328125 -3.578125,6.890625 1,0.515625 z m 0,0"
                   id="path140040" />
              </g>
              <g
                 id="use160"
                 transform="translate(248.15744,64.03418)">
                <path
                   style="stroke:none"
                   d="M 3.78125,-2.515625 8,-0.328125 l 0.453125,-0.875 -4.21875,-2.1875 L 5.53125,-5.875 9.921875,-3.609375 10.375,-4.484375 4.984375,-7.265625 0.953125,0.5 6.53125,3.390625 l 0.453125,-0.875 -4.578125,-2.375 z m 0,0"
                   id="path140036" />
              </g>
              <g
                 id="use162"
                 transform="translate(255.26122,67.713364)">
                <path
                   style="stroke:none"
                   d="m 4.984375,2.578125 5.5625,-5.359375 -3.375,6.5 0.9375,0.484375 4.03125,-7.765625 -1.375,-0.71875 L 5,1.328125 6.203125,-6.640625 4.84375,-7.34375 0.8125,0.421875 l 0.921875,0.46875 3.375,-6.5 -1.171875,7.65625 z m 0,0"
                   id="path140044" />
              </g>
              <g
                 id="use164"
                 transform="translate(264.14093,72.31234)">
                <path
                   style="stroke:none"
                   d="m 4.75,-1.765625 -2.546875,-1.3125 -0.390625,0.78125 2.546875,1.3125 z m 0,0"
                   id="path140048" />
              </g>
              <g
                 id="use166"
                 transform="translate(267.69281,74.151932)">
                <path
                   style="stroke:none"
                   d="m 5.609375,-4.0625 -2.84375,5.5 L 3.6875,1.90625 7.671875,-5.796875 7.0625,-6.109375 c -0.9375,1.015625 -1.234375,1.0625 -2.78125,0.5 L 3.921875,-4.9375 Z m 0,0"
                   id="path140052" />
              </g>
            </g>
            <path
               style="fill:#fa8c61;fill-opacity:1;fill-rule:nonzero;stroke:#b43706;stroke-width:2.05;stroke-linecap:round;stroke-linejoin:round;stroke-miterlimit:10;stroke-dasharray:none;stroke-opacity:1"
               d="m 309.17578,225.98047 0.57422,-1.34375 0.55469,-1.34766 0.53906,-1.35547 0.52344,-1.35937 0.5039,-1.3711 0.48828,-1.37109 0.47266,-1.38281 0.45313,-1.38281 0.4375,-1.39454 0.42187,-1.39453 0.40234,-1.40234 0.38672,-1.40625 0.36719,-1.41016 0.35156,-1.41797 0.33203,-1.41796 0.31641,-1.42579 0.29688,-1.42578 0.28125,-1.42968 0.26171,-1.4375 0.2461,-1.4375 0.22656,-1.44141 0.20703,-1.44141 0.19141,-1.44531 0.17187,-1.44922 0.15625,-1.44922 0.13672,-1.45312 0.1211,-1.45313 0.10156,-1.45312 0.082,-1.45703 0.0664,-1.45703 0.0469,-1.45704 0.0312,-1.45703 0.0117,-1.46093 -0.008,-1.45704 -0.0234,-1.45703 -0.043,-1.46093 -0.0625,-1.45704 -0.0781,-1.45312 -0.0977,-1.45703 -0.11328,-1.45313 -0.13281,-1.45312 -0.15235,-1.44922 -0.16797,-1.44922 -0.1875,-1.44531 -0.20312,-1.44531 -0.22266,-1.44141 -0.23828,-1.4375 -0.25781,-1.4375 -0.27735,-1.42969 -0.29296,-1.42969 -0.3086,-1.42578 -0.32812,-1.42187 -0.34766,-1.41406 -0.36328,-1.41407 -0.37891,-1.40625 -0.39843,-1.40234 -0.41797,-1.39844 19.30078,-5.86719 0.48437,1.63672 0.46875,1.64063 0.44532,1.64844 0.42578,1.65625 0.40625,1.65625 0.38281,1.66406 0.36328,1.67187 0.34375,1.67188 0.32422,1.67578 0.30078,1.67969 0.28125,1.6875 0.26172,1.6875 0.23828,1.6914 0.21875,1.69141 0.19531,1.69922 0.17578,1.69531 0.15625,1.70313 0.13672,1.70312 0.11328,1.70313 0.0899,1.70312 0.0703,1.70703 0.0508,1.70703 0.0312,1.70703 0.008,1.71094 -0.0156,1.70703 -0.0352,1.70703 -0.0547,1.70704 -0.0742,1.70703 -0.10157,1.70312 -0.11718,1.70313 -0.14063,1.70312 -0.16015,1.69922 -0.1836,1.69922 -0.19922,1.69531 -0.22656,1.69531 -0.24219,1.6875 -0.26562,1.6875 -0.28906,1.6836 -0.3086,1.67969 -0.32422,1.67578 -0.35156,1.67187 -0.36719,1.66797 -0.39062,1.66406 -0.41016,1.65625 -0.43359,1.65235 -0.44922,1.64843 -0.47266,1.64063 -0.49218,1.63672 -0.51172,1.6289 -0.53125,1.6211 -0.55469,1.61719 -0.57031,1.60937 -0.59375,1.60156 -0.60938,1.59375 -0.63281,1.58594 -0.65234,1.57813 -0.66797,1.57421 5.55078,2.41016 -21.14453,6.21484 -8.46094,-19.07421 z m 0,0"
               id="path184" />
            <g
               style="fill:#000000;fill-opacity:1"
               id="g192"
               transform="translate(0,-1.5158584)">
              <g
                 id="use186"
                 transform="translate(331.53644,201.80281)">
                <path
                   style="stroke:none"
                   d="m -3.5,-6.09375 c -0.625,-0.015625 -1.046875,0.078125 -1.40625,0.265625 -0.65625,0.375 -1.0625,1.09375 -1.15625,1.953125 -0.1875,1.703125 1.015625,2.921875 3.09375,3.15625 2,0.234375 3.40625,-0.6875 3.609375,-2.390625 C 0.796875,-4.59375 0,-5.640625 -1.5,-5.921875 l -0.109375,1 c 0.96875,0.28125 1.421875,0.84375 1.328125,1.671875 -0.125,1.109375 -1.09375,1.671875 -2.578125,1.5 C -4.421875,-1.921875 -5.28125,-2.671875 -5.15625,-3.765625 -5.0625,-4.59375 -4.5,-5.0625 -3.625,-5.078125 Z m 0,0"
                   id="path140032" />
              </g>
              <g
                 id="use188"
                 transform="translate(332.2103,195.84076)">
                <path
                   style="stroke:none"
                   d="m 0.125,-6.4375 c 0.015625,0.109375 0.015625,0.15625 0.015625,0.21875 -0.046875,0.328125 -0.25,0.515625 -0.5625,0.46875 l -3.65625,-0.40625 c -1.125,-0.125 -1.796875,0.625 -1.96875,2.15625 -0.109375,0.921875 0.078125,1.671875 0.484375,2.140625 0.296875,0.328125 0.640625,0.5 1.265625,0.578125 L -4.1875,-2.265625 C -4.96875,-2.4375 -5.25,-2.9375 -5.15625,-3.875 c 0.109375,-0.890625 0.515625,-1.34375 1.109375,-1.28125 L -3.78125,-5.125 c 0.421875,0.0625 0.5625,0.296875 0.5625,1.109375 0.015625,1.4375 0.03125,1.65625 0.15625,2.0625 0.21875,0.75 0.734375,1.1875 1.5625,1.28125 1.125,0.125 1.921875,-0.578125 2.0625,-1.84375 C 0.65625,-3.3125 0.453125,-3.96875 -0.109375,-4.75 c 0.640625,0 0.96875,-0.28125 1.03125,-0.921875 0.03125,-0.21875 0.015625,-0.34375 -0.03125,-0.6875 z m -1.5625,1.578125 c 0.34375,0.03125 0.53125,0.15625 0.765625,0.5 0.3125,0.4375 0.453125,0.9375 0.390625,1.53125 -0.09375,0.78125 -0.515625,1.1875 -1.140625,1.109375 -0.65625,-0.0625 -0.953125,-0.546875 -0.984375,-1.640625 -0.015625,-1.0625 -0.046875,-1.265625 -0.15625,-1.625 z m 0,0"
                   id="path140028" />
              </g>
              <g
                 id="use190"
                 transform="translate(332.99649,188.88506)">
                <path
                   style="stroke:none"
                   d="m -5.890625,-3.734375 -0.125,1.03125 L -7.75,-2.90625 -7.859375,-1.921875 -6.125,-1.71875 -6.21875,-0.875 l 0.796875,0.09375 0.09375,-0.84375 4.71875,0.53125 c 0.640625,0.0625 1.046875,-0.3125 1.140625,-1.09375 0.03125,-0.265625 0.03125,-0.484375 0,-0.828125 l -0.828125,-0.09375 c 0.015625,0.15625 0.015625,0.296875 -0.015625,0.5 C -0.359375,-2.1875 -0.5,-2.078125 -0.9375,-2.125 l -4.28125,-0.484375 0.125,-1.03125 z m 0,0"
                   id="path140024" />
              </g>
            </g>
            <path
               style="fill:#f8e100;fill-opacity:1;fill-rule:nonzero;stroke:#968800;stroke-width:2.05;stroke-linecap:round;stroke-linejoin:round;stroke-miterlimit:10;stroke-dasharray:none;stroke-opacity:1"
               d="m 212.44141,296.37891 1.46093,-0.14844 1.46094,-0.17188 1.45703,-0.1875 1.45313,-0.20703 1.45312,-0.22265 1.44922,-0.24219 1.44531,-0.26172 1.44532,-0.27734 1.4375,-0.29688 1.4375,-0.31641 1.42968,-0.33203 1.42969,-0.34765 1.42188,-0.36719 1.41796,-0.38672 1.41407,-0.40234 1.40625,-0.42188 1.40234,-0.4375 1.39844,-0.45703 1.39062,-0.47266 1.38672,-0.48828 1.37891,-0.50781 1.37109,-0.52734 1.36719,-0.53907 1.35937,-0.55859 1.35157,-0.57812 1.34375,-0.58985 1.33984,-0.60937 1.32813,-0.625 1.32421,-0.64453 1.3125,-0.65625 1.30469,-0.67579 1.29688,-0.6914 1.28906,-0.70703 1.27734,-0.72266 1.27344,-0.74219 1.25781,-0.7539 1.25391,-0.76953 1.23828,-0.78516 1.23438,-0.80469 1.22265,-0.8164 1.21094,-0.83204 1.19922,-0.84765 1.1914,-0.85938 1.17969,-0.8789 1.16797,-0.89063 1.15625,-0.90625 1.14453,-0.91797 1.13672,-0.9375 1.12109,-0.94531 1.11329,-0.96484 1.09765,-0.97657 1.08594,-0.98828 1.07422,-1.0039 1.05859,-1.01563 1.05078,-1.03125 1.03516,-1.03906 1.02344,-1.05859 1.00781,-1.06641 0.99609,-1.08203 0.98438,-1.08985 0.96875,-1.10546 0.95312,-1.11719 15.41407,13.01172 -1.11719,1.30468 -1.13281,1.29688 -1.15235,1.27734 -1.16797,1.26563 -1.17968,1.25 -1.19922,1.23828 -1.21094,1.21875 -1.23047,1.20703 -1.24219,1.19141 -1.25781,1.17578 -1.26953,1.15625 -1.28906,1.14453 -1.30078,1.125 -1.3125,1.11328 -1.32813,1.09375 -1.34375,1.07813 -1.35547,1.05859 -1.36719,1.04297 -1.3789,1.02734 -1.39453,1.01172 -1.40625,0.99219 -1.41797,0.97265 -1.4336,0.95704 -1.4414,0.9375 -1.45313,0.92187 -1.46484,0.90234 -1.47656,0.88282 -1.48828,0.86718 -1.5,0.84766 -1.50782,0.82813 -1.51953,0.80859 -1.52734,0.78906 -1.53906,0.77344 -1.54688,0.75 -1.55859,0.73437 -1.56641,0.71094 -1.57422,0.69531 -1.58203,0.67579 -1.59375,0.65234 -1.59766,0.63281 -1.60937,0.61719 -1.61328,0.59375 -1.6211,0.57422 -1.6289,0.55469 -1.63672,0.53125 -1.64453,0.51562 -1.64844,0.49219 -1.65625,0.47265 -1.66016,0.44922 -1.66406,0.42969 -1.67187,0.41016 -1.67578,0.39062 -1.6836,0.36719 -1.68359,0.34766 -1.69141,0.32421 -1.6914,0.30469 -1.69922,0.28516 -1.69922,0.26172 -1.70313,0.24218 -1.70703,0.22266 -1.71094,0.19531 -1.71093,0.17969 z"
               id="path208"
               sodipodi:nodetypes="ccccccccccccccccccccccccccccccccccccccccccccccccccccccccccccccccccccccccccccccccccccccccccccccccccccccccccccccccccccccccccccccc" />
            <g
               style="fill:#000000;fill-opacity:1"
               id="g218"
               transform="translate(6.0889259,-3.8747462)">
              <g
                 id="use210"
                 transform="translate(242.72604,305.34894)">
                <path
                   style="stroke:none"
                   d="M 1.65625,2.109375 2.578125,1.6875 1.234375,-1.28125 c 0.75,0.359375 1.390625,0.390625 2.140625,0.046875 1.484375,-0.6875 1.921875,-2.3125 1.078125,-4.125 C 3.578125,-7.28125 2.09375,-8.078125 0.5625,-7.375 c -0.78125,0.359375 -1.234375,1 -1.34375,1.859375 L -1.171875,-6.375 -2.03125,-5.984375 Z m -0.859375,-8.5625 c 1.015625,-0.453125 2.078125,0.125 2.703125,1.5 0.59375,1.296875 0.328125,2.484375 -0.671875,2.9375 -0.96875,0.453125 -2,-0.15625 -2.609375,-1.484375 -0.625,-1.359375 -0.390625,-2.5 0.578125,-2.953125 z m 0,0"
                   id="path140020" />
              </g>
              <g
                 id="use212"
                 transform="translate(249.09412,302.44247)">
                <path
                   style="stroke:none"
                   d="m 0.265625,-6.921875 2.5625,5.625 0.953125,-0.421875 -3.59375,-7.890625 -0.625,0.28125 c 0.203125,1.359375 0.0625,1.625 -1.34375,2.5 L -1.453125,-6.125 Z m 0,0"
                   id="path140016" />
              </g>
              <g
                 id="use214"
                 transform="translate(255.46219,299.53598)">
                <path
                   style="stroke:none"
                   d="m 1.671875,-10.125 -4.015625,1.828125 1.359375,4.484375 0.875,-0.40625 C 0.09375,-4.953125 0.390625,-5.3125 1,-5.59375 2.046875,-6.0625 3.015625,-5.65625 3.53125,-4.5 c 0.515625,1.109375 0.1875,2.09375 -0.875,2.5625 -0.828125,0.390625 -1.546875,0.203125 -2.1875,-0.578125 l -0.953125,0.4375 c 0.421875,0.578125 0.671875,0.828125 1.03125,1 0.71875,0.40625 1.640625,0.375 2.5,-0.015625 1.5625,-0.71875 2.140625,-2.34375 1.40625,-3.984375 -0.703125,-1.53125 -2.1875,-2.125 -3.6875,-1.453125 -0.53125,0.25 -0.90625,0.609375 -1.203125,1.125 l -0.6875,-2.296875 3.234375,-1.46875 z m 0,0"
                   id="path140012" />
              </g>
              <g
                 id="use216"
                 transform="translate(261.83026,296.62952)">
                <path
                   style="stroke:none"
                   d="M 4.078125,-4.75 6,-2.734375 7.140625,-3.25 0.6875,-9.9375 l -1.296875,0.609375 0.796875,9.25 1.078125,-0.5 -0.25,-2.765625 z M 3.40625,-5.46875 0.875,-4.3125 0.53125,-8.53125 Z m 0,0"
                   id="path140008" />
              </g>
            </g>
            <path
               style="fill:#d1d1d1;fill-opacity:1;fill-rule:nonzero;stroke:#383838;stroke-width:2.05;stroke-linecap:round;stroke-linejoin:round;stroke-miterlimit:10;stroke-dasharray:none;stroke-opacity:1"
               d="m 148.12422,284.66513 -1.31051,-0.67399 -1.3004,-0.68823 -1.29355,-0.70693 -1.28341,-0.72116 -1.27656,-0.73987 -1.26645,-0.7541 -1.25634,-0.76834 -1.2456,-0.78645 -1.23549,-0.80069 -1.22538,-0.81493 -1.21911,-0.82977 -1.20454,-0.84728 -1.19442,-0.86151 -1.1843,-0.87575 -1.17358,-0.89386 -1.16407,-0.90423 -1.14948,-0.92173 -1.13997,-0.93212 -1.12538,-0.94961 -1.11587,-0.96 -1.1013,-0.9775 -1.09117,-0.99174 -1.08166,-1.00212 -1.06322,-1.01902 -1.0537,-1.0294 -1.03972,-1.04304 -1.02575,-1.05669 -1.01622,-1.06707 -0.99779,-1.08396 -0.98886,-1.09049 -0.9743,-1.10799 -0.95705,-1.11716 -0.94693,-1.13142 -0.9297,-1.14058 -0.91572,-1.15424 -0.90233,-1.16401 -0.88837,-1.17767 -0.87112,-1.18683 -0.85774,-1.19662 -0.84377,-1.21026 -0.82652,-1.21944 -0.81315,-1.22922 -0.7959,-1.2384 -0.78254,-1.24819 -0.76529,-1.25736 -0.751314,-1.27102 -0.730806,-1.27573 -0.7213,-1.2861 -0.700202,-1.2947 -0.686813,-1.30447 -0.669579,-1.31365 -0.652944,-1.31898 -0.635702,-1.32816 -0.618468,-1.33733 -0.601823,-1.34267 -0.588444,-1.35244 -0.567346,-1.36103 -0.550713,-1.36634 -0.537932,-1.37227 -0.517425,-1.37699 -0.50019,-1.38617 -0.483558,-1.39149 -0.466913,-1.39681 -0.445816,-1.4054 -0.429781,-1.40686 -0.412538,-1.41604 -0.396493,-1.41749 -0.379259,-1.42669 -0.359361,-1.42755 -0.342718,-1.43286 -0.322231,-1.43759 -19.704519,4.31571 0.379484,1.67972 0.399392,1.67885 0.41988,1.67413 0.44484,1.66616 0.460884,1.66468 0.486447,1.65285 0.502479,1.65138 0.523577,1.6428 0.54794,1.63868 0.565172,1.6295 0.586279,1.62091 0.606767,1.6162 0.624012,1.607 0.648972,1.59904 0.666215,1.58984 0.686703,1.58513 0.704547,1.57208 0.725044,1.56737 0.74674,1.55492 0.763984,1.54574 0.785081,1.53716 0.802317,1.52797 0.820157,1.51494 0.841257,1.50634 0.858499,1.49718 0.880186,1.48473 0.893577,1.47494 0.915272,1.46251 0.933107,1.44946 0.954202,1.44089 0.968183,1.42724 0.986026,1.41419 1.003859,1.40116 1.021093,1.39198 1.039545,1.37507 1.05677,1.3659 1.075211,1.34899 1.088592,1.33921 1.107036,1.3223 1.124866,1.30927 1.138847,1.29563 1.152817,1.28198 1.17127,1.26508 1.18909,1.25205 1.20308,1.23839 1.21766,1.2209 1.23163,1.20727 1.25008,1.19036 1.26019,1.17611 1.27863,1.15921 1.2932,1.14172 1.30718,1.12807 1.3179,1.10998 1.33574,1.09692 1.34707,1.07497 1.36103,1.06133 1.37175,1.04323 1.38633,1.02573 1.40091,1.00823 1.41102,0.99398 1.42621,0.97262 1.43692,0.95453 1.44764,0.93642 1.45776,0.92218 1.47293,0.90082 1.4798,0.88213 1.49437,0.86462 1.50509,0.84651 1.51255,0.82397 1.52652,0.81031 1.53398,0.78776 -2.7321,5.39853 20.23837,-8.71956 -5.66854,-20.08069 z m 0,0"
               id="path234" />
            <g
               style="fill:#000000;fill-opacity:1"
               id="g244"
               transform="rotate(4.0064629,114.71807,260.67911)">
              <g
                 id="use236"
                 transform="translate(91.327049,254.16005)">
                <path
                   style="stroke:none"
                   d="M 4.609375,4.515625 C 4.5,4.453125 4.46875,4.421875 4.4375,4.375 4.203125,4.109375 4.234375,3.828125 4.46875,3.625 L 7.28125,1.25 C 8.140625,0.515625 8.0625,-0.46875 7.0625,-1.65625 6.46875,-2.359375 5.796875,-2.765625 5.15625,-2.765625 4.71875,-2.796875 4.375,-2.65625 3.875,-2.265625 L 4.53125,-1.5 c 0.65625,-0.421875 1.203125,-0.296875 1.8125,0.421875 0.59375,0.6875 0.640625,1.28125 0.1875,1.65625 L 6.328125,0.75 C 6,1.015625 5.71875,0.96875 5.125,0.40625 4.0625,-0.546875 3.890625,-0.6875 3.546875,-0.875 2.8125,-1.234375 2.171875,-1.171875 1.53125,-0.640625 0.65625,0.09375 0.625,1.171875 1.4375,2.140625 1.953125,2.75 2.578125,3.046875 3.515625,3.1875 3.09375,3.65625 3.078125,4.078125 3.484375,4.5625 3.625,4.734375 3.734375,4.796875 4.03125,5.015625 Z M 4.53125,2.28125 C 4.265625,2.5 4.046875,2.578125 3.625,2.5 3.109375,2.4375 2.640625,2.1875 2.25,1.734375 1.75,1.140625 1.734375,0.5625 2.234375,0.140625 c 0.5,-0.421875 1.03125,-0.3125 1.859375,0.421875 0.796875,0.703125 0.953125,0.828125 1.296875,0.984375 z m 0,0"
                   id="path140000" />
              </g>
              <g
                 id="use238"
                 transform="translate(95.849854,259.50275)">
                <path
                   style="stroke:none"
                   d="M 5.328125,-3.4375 0.53125,0.625 1.1875,1.40625 l 2.5,-2.109375 C 4.84375,-1.6875 5.75,-1.625 6.625,-0.546875 l 0.78125,-0.65625 C 7.296875,-1.359375 7.265625,-1.421875 7.171875,-1.53125 6.75,-2.03125 6.140625,-2.140625 5.046875,-2 l 0.875,-0.734375 z m 0,0"
                   id="path139996" />
              </g>
              <g
                 id="use240"
                 transform="translate(98.434311,262.55569)">
                <path
                   style="stroke:none"
                   d="M 4.609375,4.515625 C 4.5,4.453125 4.46875,4.421875 4.4375,4.375 4.203125,4.109375 4.234375,3.828125 4.46875,3.625 L 7.28125,1.25 C 8.140625,0.515625 8.0625,-0.46875 7.0625,-1.65625 6.46875,-2.359375 5.796875,-2.765625 5.15625,-2.765625 4.71875,-2.796875 4.375,-2.65625 3.875,-2.265625 L 4.53125,-1.5 c 0.65625,-0.421875 1.203125,-0.296875 1.8125,0.421875 0.59375,0.6875 0.640625,1.28125 0.1875,1.65625 L 6.328125,0.75 C 6,1.015625 5.71875,0.96875 5.125,0.40625 4.0625,-0.546875 3.890625,-0.6875 3.546875,-0.875 2.8125,-1.234375 2.171875,-1.171875 1.53125,-0.640625 0.65625,0.09375 0.625,1.171875 1.4375,2.140625 1.953125,2.75 2.578125,3.046875 3.515625,3.1875 3.09375,3.65625 3.078125,4.078125 3.484375,4.5625 3.625,4.734375 3.734375,4.796875 4.03125,5.015625 Z M 4.53125,2.28125 C 4.265625,2.5 4.046875,2.578125 3.625,2.5 3.109375,2.4375 2.640625,2.1875 2.25,1.734375 1.75,1.140625 1.734375,0.5625 2.234375,0.140625 c 0.5,-0.421875 1.03125,-0.3125 1.859375,0.421875 0.796875,0.703125 0.953125,0.828125 1.296875,0.984375 z m 0,0"
                   id="path140004" />
              </g>
              <g
                 id="use242"
                 transform="translate(102.95712,267.89838)">
                <path
                   style="stroke:none"
                   d="M 9.734375,2.171875 C 10.96875,0.65625 10.96875,-0.796875 9.734375,-2.25 8.96875,-3.15625 8.078125,-3.625 7.109375,-3.65625 5.953125,-3.703125 4.71875,-3.234375 3.625,-2.3125 2.53125,-1.390625 1.875,-0.25 1.765625,0.921875 c -0.109375,0.96875 0.203125,1.859375 0.9375,2.71875 1.375,1.625 3.046875,1.796875 4.984375,0.5 L 6.9375,3.25 C 6.421875,3.578125 6.03125,3.75 5.65625,3.828125 4.859375,4.03125 4.0625,3.71875 3.453125,3 2.34375,1.6875 2.6875,-0.078125 4.359375,-1.484375 6.078125,-2.9375 7.796875,-3.015625 8.890625,-1.71875 9.359375,-1.1875 9.625,-0.546875 9.59375,-0.046875 9.578125,0.390625 9.421875,0.765625 9,1.296875 Z m 0,0"
                   id="path139992" />
              </g>
            </g>
            <g
               id="g3491"
               transform="matrix(2.5900903,1.6772509,-1.6772509,2.5900903,222.62465,-364.75755)">
              <flowRoot
                 transform="matrix(0.28455291,-0.19332762,0.19332762,0.28455291,-410.19331,-513.54061)"
                 style="font-style:normal;font-weight:normal;line-height:0.01%;font-family:sans-serif;letter-spacing:0px;word-spacing:0px;fill:#000000;fill-opacity:1;stroke:none;stroke-width:1px;stroke-linecap:butt;stroke-linejoin:miter;stroke-opacity:1"
                 id="flowRoot7611-3-9-1-1-1-3-1"
                 xml:space="preserve"
                 inkscape:export-filename="/home/jero/Science/MEGA/Scientific Projects/Evodynamics/charlis paper/pBGT.png"
                 inkscape:export-xdpi="300"
                 inkscape:export-ydpi="300"><flowRegion
                   id="flowRegion7613-6-7-2-9-8-6-2"><rect
                     transform="scale(1,-1)"
                     y="-2439.6519"
                     x="-0.35114288"
                     height="38.278603"
                     width="120.60381"
                     id="rect7615-7-3-9-4-5-7-7" /></flowRegion><flowPara
                   style="font-style:normal;font-variant:normal;font-weight:normal;font-stretch:normal;font-size:15px;line-height:1.25;font-family:arial;-inkscape-font-specification:arial"
                   id="flowPara7617-5-6-3-7-9-5-0">P<flowSpan
   style="font-style:normal;font-size:65%;baseline-shift:sub"
   id="flowSpan17664-9">BAD</flowSpan></flowPara></flowRoot>
              <path
                 style="fill:none;stroke:#000000;stroke-width:0.55546;stroke-linecap:butt;stroke-linejoin:miter;stroke-miterlimit:4;stroke-dasharray:none;stroke-opacity:1;marker-end:url(#Arrow2Send-2)"
                 d="m 55.014293,174.09906 -4.947871,2.99208 -2.723788,-4.4617"
                 id="path15212-3"
                 sodipodi:nodetypes="ccc"
                 inkscape:export-filename="/home/jero/Science/MEGA/Scientific Projects/Evodynamics/charlis paper/pBGT.png"
                 inkscape:export-xdpi="300"
                 inkscape:export-ydpi="300" />
            </g>
            <path
               style="fill:#00ff00;fill-opacity:1;fill-rule:nonzero;stroke:#007c00;stroke-width:2.05;stroke-linecap:round;stroke-linejoin:round;stroke-miterlimit:10;stroke-dasharray:none;stroke-opacity:1"
               d="m 123.41797,90.175781 -1.10547,0.976563 -1.09375,0.988281 -1.07812,1.007813 -1.06641,1.015624 -1.05469,1.03125 -1.04297,1.046876 -1.02734,1.058593 -1.01563,1.066407 -1.0039,1.085937 -0.98828,1.093755 -0.97266,1.10937 -0.96094,1.11719 -0.94531,1.13281 -0.93359,1.14453 -0.91797,1.15235 -0.90235,1.16796 -0.89062,1.17579 -0.875,1.1914 -0.85547,1.19922 -0.84375,1.21094 -0.83203,1.21875 -0.8125,1.23047 -0.79688,1.24218 -0.78125,1.25 -0.765621,1.26172 -0.753907,1.26953 -0.734374,1.27735 -0.71875,1.28906 -0.703126,1.29688 -0.683593,1.30468 -0.671875,1.31641 -0.652344,1.32422 -0.636719,1.32812 -0.621093,1.33985 -0.601563,1.34765 -0.585937,1.35156 -0.570313,1.35938 -0.554687,1.37109 -0.535157,1.375 -0.515625,1.37891 -0.5,1.38672 -0.484375,1.39453 -0.464843,1.40234 -0.449219,1.40235 -0.429688,1.41406 -0.414062,1.41406 -0.394531,1.42188 -0.378907,1.42578 -0.359375,1.42969 -0.339844,1.4375 -0.324218,1.4375 -0.304688,1.44531 -19.761718,-4.05469 0.359374,-1.69141 0.378907,-1.68359 0.398437,-1.68359 0.421875,-1.67578 0.441407,-1.66797 0.464843,-1.66407 0.480469,-1.66015 0.503906,-1.65235 0.527344,-1.64453 0.542969,-1.64062 0.566406,-1.63281 0.585937,-1.625 0.609376,-1.61719 0.625,-1.60938 0.648437,-1.60156 0.664063,-1.59375 0.6875,-1.58594 0.707031,-1.57421 0.726562,-1.57032 0.746094,-1.55859 0.765625,-1.54688 0.785156,-1.53906 0.800782,-1.53125 0.824218,-1.51953 0.839844,-1.50781 0.863281,-1.4961 0.878907,-1.48828 0.898437,-1.47656 0.914063,-1.46484 0.933593,-1.45313 0.953125,-1.4414 0.96875,-1.42969 0.988282,-1.414065 1.007812,-1.40625 1.023438,-1.390625 1.039062,-1.378906 1.058594,-1.367188 1.074218,-1.351562 1.09375,-1.339844 1.105469,-1.324219 1.125,-1.3125 1.144531,-1.296875 1.15625,-1.28125 1.171878,-1.269531 1.1875,-1.253906 1.20703,-1.238281 1.21875,-1.222657 1.23437,-1.207031 1.25,-1.191406 1.26563,-1.179688 1.28125,-1.160156 1.29297,-1.144531 -3.98047,-4.558594 21.76562,3.453125 -0.53515,20.855469 z m 0,0"
               id="path258" />
            <g
               style="fill:#000000;fill-opacity:1"
               id="g266">
              <g
                 id="use260"
                 transform="translate(91.057365,120.88568)">
                <path
                   style="stroke:none"
                   d="M 0.828125,-9.65625 -1.1875,-6.609375 -0.375,-6.0625 1.09375,-8.28125 1.3125,-8.140625 c 1.28125,0.84375 1.609375,2.421875 0.71875,3.765625 -0.484375,0.734375 -1.203125,1.25 -1.953125,1.359375 -0.84375,0.140625 -1.890625,-0.15625 -2.796875,-0.75 -1.78125,-1.171875 -2.296875,-3 -1.28125,-4.53125 0.734375,-1.109375 1.828125,-1.53125 2.890625,-1.109375 l 0.640625,-0.953125 c -1.65625,-0.71875 -3.25,-0.15625 -4.34375,1.515625 -0.59375,0.90625 -0.828125,1.78125 -0.75,2.65625 0.140625,1.3125 0.96875,2.53125 2.28125,3.390625 2.25,1.484375 4.71875,1.140625 6.015625,-0.828125 0.640625,-1 0.78125,-2.03125 0.484375,-3.265625 l 1.125,0.40625 0.390625,-0.59375 z m 0,0"
                   id="path139988" />
              </g>
              <g
                 id="use262"
                 transform="translate(96.011421,113.37188)">
                <path
                   style="stroke:none"
                   d="M -2.109375,-4.03125 0.1875,-7.515625 -0.625,-8.0625 -2.921875,-4.578125 -5.265625,-6.125 l 2.609375,-3.96875 -0.828125,-0.53125 -3.234375,4.90625 7.3125,4.8125 0.625,-0.9375 z m 0,0"
                   id="path139984" />
              </g>
              <g
                 id="use264"
                 transform="translate(99.864586,107.52781)">
                <path
                   style="stroke:none"
                   d="m -1.875,-3.875 1.5,-2.296875 c 0.390625,-0.5625 0.515625,-1.15625 0.421875,-1.75 C -0.0625,-8.640625 -0.40625,-9.140625 -1.09375,-9.59375 -2.453125,-10.5 -3.765625,-10.1875 -4.71875,-8.734375 l -1.984375,3.015625 7.3125,4.8125 0.609375,-0.9375 z M -2.6875,-4.421875 -5.265625,-6.125 l 1.28125,-1.9375 c 0.59375,-0.90625 1.421875,-1.09375 2.21875,-0.578125 0.8125,0.53125 0.953125,1.375 0.359375,2.28125 z m 0,0"
                   id="path139980" />
              </g>
            </g>
            <flowRoot
               transform="matrix(1.8352283,0,0,1.8352283,121.72043,-1117.3593)"
               style="font-style:normal;font-weight:normal;line-height:0.01%;font-family:sans-serif;letter-spacing:0px;word-spacing:0px;fill:#000000;fill-opacity:1;stroke:none;stroke-width:1px;stroke-linecap:butt;stroke-linejoin:miter;stroke-opacity:1"
               id="flowRoot7696-6-6-7-6"
               xml:space="preserve"
               inkscape:export-filename="/home/jero/Science/MEGA/Scientific Projects/Evodynamics/charlis paper/pBGT.png"
               inkscape:export-xdpi="300"
               inkscape:export-ydpi="300"><flowRegion
                 id="flowRegion7698-0-3-5-0"><rect
                   transform="scale(1,-1)"
                   y="-795.58545"
                   x="-0.92302704"
                   height="108.22884"
                   width="92.288116"
                   id="rect7700-6-2-3-6" /></flowRegion><flowPara
                 style="font-style:normal;font-variant:normal;font-weight:normal;font-stretch:normal;font-size:14px;line-height:1.25;font-family:arial;-inkscape-font-specification:arial;text-align:center;text-anchor:middle"
                 id="flowPara7702-2-0-8-2">pBGT1</flowPara><flowPara
                 style="font-style:normal;font-variant:normal;font-weight:normal;font-stretch:normal;font-size:12px;line-height:1.25;font-family:arial;-inkscape-font-specification:arial;text-align:center;text-anchor:middle"
                 id="flowPara8385-8-6">5,369bp</flowPara></flowRoot>
          </g>
        </g>
      </g>
    </g>
  </g>
</svg>
